<svg width="140" height="67" viewBox="0 0 140 67" fill="none" xmlns="http://www.w3.org/2000/svg">
<path d="M26.7832 19.4894C25.2446 17.7466 22.4602 17 18.8982 17H8.56098C7.83291 17 7.21416 17.5259 7.09866 18.2375L2.79429 45.3202C2.70973 45.8544 3.12635 46.337 3.67085 46.337H10.0522L11.6548 36.2514L11.6053 36.569C11.7187 35.8574 12.3354 35.3315 13.0635 35.3315H16.0954C22.0539 35.3315 26.7172 32.9308 28.0805 25.9863C28.1218 25.7801 28.1857 25.3841 28.1857 25.3841C28.5734 22.8142 28.1836 21.0714 26.7832 19.4894Z" fill="#ABAFB8"/>
<path d="M29.8006 26.7C28.3197 33.5371 23.5945 37.1548 16.0953 37.1548H13.3769L11.3474 50H15.757C16.3943 50 16.9368 49.5401 17.0358 48.9151L17.0873 48.6429L18.1021 42.2677L18.1681 41.9171C18.2671 41.2921 18.8095 40.8322 19.4448 40.8322H20.2512C25.4632 40.8322 29.5428 38.7326 30.7349 32.6585C31.2134 30.2206 30.9824 28.1767 29.8006 26.7Z" fill="#ABAFB8"/>
<path d="M50.826 37.04C55.116 37.04 58.296 33.92 58.296 29.87C58.296 25.82 55.116 22.7 50.826 22.7H43.746V44H48.096V37.04H50.826ZM50.766 26.78C52.716 26.78 54.066 28.1 54.066 29.87C54.066 31.64 52.716 32.96 50.766 32.96H48.096V26.78H50.766ZM70.9046 44H75.0146V29H70.9046V30.68C70.1546 29.6 68.5046 28.67 66.5846 28.67C62.7146 28.58 59.4446 32.33 59.5346 36.5C59.4446 40.67 62.7146 44.42 66.5846 44.33C68.5046 44.33 70.1546 43.4 70.9046 42.32V44ZM63.6746 36.5C63.6746 34.13 65.2046 32.42 67.4546 32.42C69.7046 32.42 71.2346 34.13 71.2346 36.5C71.2346 38.87 69.7046 40.58 67.4546 40.58C65.2046 40.58 63.6746 38.87 63.6746 36.5ZM89.6003 29L85.6103 38.72L81.5903 29H77.0903L83.3903 43.16L80.2403 50.27H84.7103L94.1303 29H89.6003ZM100.23 42.32C100.98 43.4 102.66 44.33 104.58 44.33C108.45 44.42 111.72 40.67 111.63 36.5C111.72 32.33 108.45 28.58 104.58 28.67C102.66 28.67 100.98 29.6 100.23 30.68V29H96.1196V50.27H100.23V42.32ZM99.8996 36.5C99.8996 34.13 101.43 32.42 103.68 32.42C105.93 32.42 107.46 34.13 107.46 36.5C107.46 38.87 105.93 40.58 103.68 40.58C101.43 40.58 99.8996 38.87 99.8996 36.5ZM125.045 44H129.155V29H125.045V30.68C124.295 29.6 122.645 28.67 120.725 28.67C116.855 28.58 113.585 32.33 113.675 36.5C113.585 40.67 116.855 44.42 120.725 44.33C122.645 44.33 124.295 43.4 125.045 42.32V44ZM117.815 36.5C117.815 34.13 119.345 32.42 121.595 32.42C123.845 32.42 125.375 34.13 125.375 36.5C125.375 38.87 123.845 40.58 121.595 40.58C119.345 40.58 117.815 38.87 117.815 36.5ZM133.151 21.5V44H137.261V21.5H133.151Z" fill="#ABAFB8"/>
</svg>
