<svg width="170" height="170" viewBox="0 0 170 170" fill="none" xmlns="http://www.w3.org/2000/svg">
<g filter="url(#filter0_d_1_207)">
<rect x="53" y="36" width="64" height="64" rx="15" fill="#386846" fill-opacity="0.2"/>
</g>
<path d="M101.906 72.8746C101.303 72.8746 100.812 73.3646 100.812 73.9684V81.6246H70.1875V68.4996H82.2188C82.8225 68.4996 83.3125 68.0096 83.3125 67.4059C83.3125 66.8021 82.8225 66.3121 82.2188 66.3121H70.1875V61.9371H82.2188C82.8225 61.9371 83.3125 61.4471 83.3125 60.8434C83.3125 60.2396 82.8225 59.7496 82.2188 59.7496H70.1875C68.98 59.7496 68 60.7296 68 61.9371V81.6246C68 82.8321 68.98 83.8121 70.1875 83.8121H100.812C102.02 83.8121 103 82.8321 103 81.6246V73.9684C103 73.3646 102.51 72.8746 101.906 72.8746Z" fill="#2F5535"/>
<path d="M77.8438 72.8746H73.4688C72.865 72.8746 72.375 73.3646 72.375 73.9684C72.375 74.5721 72.865 75.0621 73.4688 75.0621H77.8438C78.4475 75.0621 78.9375 74.5721 78.9375 73.9684C78.9375 73.3646 78.4475 72.8746 77.8438 72.8746Z" fill="#2F5535"/>
<path d="M102.337 56.5561L94.6809 53.2748C94.4031 53.1589 94.0947 53.1589 93.8169 53.2748L86.1606 56.5561C85.7603 56.7289 85.5 57.1248 85.5 57.5623V61.9373C85.5 67.9551 87.7247 71.4726 93.7053 74.9179C93.8738 75.0142 94.0619 75.0623 94.25 75.0623C94.4381 75.0623 94.6262 75.0142 94.7947 74.9179C100.775 71.4814 103 67.9639 103 61.9373V57.5623C103 57.1248 102.74 56.7289 102.337 56.5561ZM100.812 61.9373C100.812 66.9883 99.1413 69.7686 94.25 72.6998C89.3587 69.762 87.6875 66.9817 87.6875 61.9373V58.2842L94.25 55.4711L100.812 58.2842V61.9373Z" fill="#2F5535"/>
<path d="M98.2162 59.9879C97.7459 59.616 97.059 59.6882 96.6784 60.1585L93.2396 64.4592L91.879 62.4248C91.54 61.9217 90.8596 61.7882 90.3631 62.1207C89.8622 62.4554 89.7243 63.1357 90.059 63.6367L92.2465 66.9179C92.4412 67.2088 92.7606 67.3882 93.1106 67.4057C93.1259 67.4057 93.1434 67.4057 93.1565 67.4057C93.4868 67.4057 93.8018 67.257 94.0118 66.9945L98.3868 61.5257C98.7631 61.0532 98.6887 60.3663 98.2162 59.9879Z" fill="#2F5535"/>
<defs>
<filter id="filter0_d_1_207" x="0" y="0" width="170" height="170" filterUnits="userSpaceOnUse" color-interpolation-filters="sRGB">
<feFlood flood-opacity="0" result="BackgroundImageFix"/>
<feColorMatrix in="SourceAlpha" type="matrix" values="0 0 0 0 0 0 0 0 0 0 0 0 0 0 0 0 0 0 127 0" result="hardAlpha"/>
<feMorphology radius="7" operator="erode" in="SourceAlpha" result="effect1_dropShadow_1_207"/>
<feOffset dy="17"/>
<feGaussianBlur stdDeviation="30"/>
<feColorMatrix type="matrix" values="0 0 0 0 0.139028 0 0 0 0 0.146572 0 0 0 0 0.327639 0 0 0 0.05 0"/>
<feBlend mode="normal" in2="BackgroundImageFix" result="effect1_dropShadow_1_207"/>
<feBlend mode="normal" in="SourceGraphic" in2="effect1_dropShadow_1_207" result="shape"/>
</filter>
</defs>
</svg>
