<svg width="170" height="170" viewBox="0 0 170 170" fill="none" xmlns="http://www.w3.org/2000/svg">
<g filter="url(#filter0_d_1_194)">
<rect x="53" y="36" width="64" height="64" rx="15" fill="#F1D98F" fill-opacity="0.44"/>
</g>
<path d="M88 74.0002H82C81.448 74.0002 81 74.4482 81 75.0002C81 75.5522 81.448 76.0002 82 76.0002H88C88.552 76.0002 89 75.5522 89 75.0002C89 74.4482 88.552 74.0002 88 74.0002Z" fill="#F28928"/>
<path d="M100 61.0001H94.618L90.894 53.5521C90.646 53.0581 90.048 52.8601 89.552 53.1041C89.058 53.3521 88.858 53.9521 89.104 54.4461L92.382 61.0001H77.618L80.894 54.4481C81.14 53.9541 80.942 53.3521 80.448 53.1061C79.954 52.8641 79.354 53.0581 79.106 53.5521L75.382 61.0001H70C69.448 61.0001 69 61.4481 69 62.0001V66.0001C69 66.5521 69.448 67.0001 70 67.0001H71.218L75.028 82.2421C75.14 82.6881 75.542 83.0001 76 83.0001H94C94.458 83.0001 94.86 82.6881 94.97 82.2421L98.782 67.0001H100C100.552 67.0001 101 66.5521 101 66.0001V62.0001C101 61.4481 100.552 61.0001 100 61.0001ZM93.218 81.0001H76.782L73.282 67.0001H96.72L93.218 81.0001ZM99 65.0001H71V63.0001H99V65.0001Z" fill="#F28928"/>
<defs>
<filter id="filter0_d_1_194" x="0" y="0" width="170" height="170" filterUnits="userSpaceOnUse" color-interpolation-filters="sRGB">
<feFlood flood-opacity="0" result="BackgroundImageFix"/>
<feColorMatrix in="SourceAlpha" type="matrix" values="0 0 0 0 0 0 0 0 0 0 0 0 0 0 0 0 0 0 127 0" result="hardAlpha"/>
<feMorphology radius="7" operator="erode" in="SourceAlpha" result="effect1_dropShadow_1_194"/>
<feOffset dy="17"/>
<feGaussianBlur stdDeviation="30"/>
<feColorMatrix type="matrix" values="0 0 0 0 0.139028 0 0 0 0 0.146572 0 0 0 0 0.327639 0 0 0 0.05 0"/>
<feBlend mode="normal" in2="BackgroundImageFix" result="effect1_dropShadow_1_194"/>
<feBlend mode="normal" in="SourceGraphic" in2="effect1_dropShadow_1_194" result="shape"/>
</filter>
</defs>
</svg>
