<svg width="33" height="32" viewBox="0 0 33 32" fill="none" xmlns="http://www.w3.org/2000/svg">
<path fill-rule="evenodd" clip-rule="evenodd" d="M16.3333 0C7.49676 0 0.333313 7.16344 0.333313 16C0.333313 24.8366 7.49676 32 16.3333 32C25.1699 32 32.3333 24.8366 32.3333 16C32.3333 7.16344 25.1699 0 16.3333 0ZM12.8156 7.51835C13.7259 7.47693 14.0167 7.4668 16.3343 7.4668H16.3316C18.6498 7.4668 18.9396 7.47693 19.8499 7.51835C20.7583 7.55995 21.3788 7.70378 21.9228 7.9148C22.4846 8.13258 22.9592 8.42414 23.4339 8.89881C23.9086 9.37313 24.2001 9.84922 24.4188 10.4105C24.6286 10.9531 24.7726 11.5732 24.8152 12.4816C24.8561 13.3918 24.8668 13.6827 24.8668 16.0002C24.8668 18.3178 24.8561 18.6079 24.8152 19.5181C24.7726 20.4262 24.6286 21.0465 24.4188 21.5893C24.2001 22.1503 23.9086 22.6264 23.4339 23.1007C22.9598 23.5754 22.4844 23.8677 21.9233 24.0856C21.3804 24.2967 20.7596 24.4405 19.8511 24.4821C18.9409 24.5235 18.6509 24.5336 16.3332 24.5336C14.0158 24.5336 13.7252 24.5235 12.8149 24.4821C11.9067 24.4405 11.2864 24.2967 10.7435 24.0856C10.1826 23.8677 9.70646 23.5754 9.23232 23.1007C8.75783 22.6264 8.46627 22.1503 8.24814 21.5891C8.03729 21.0465 7.89346 20.4264 7.85169 19.5179C7.81044 18.6077 7.80013 18.3178 7.80013 16.0002C7.80013 13.6827 7.8108 13.3917 7.85151 12.4814C7.8924 11.5733 8.0364 10.9531 8.24796 10.4103C8.46663 9.84922 8.75818 9.37313 9.23286 8.89881C9.70717 8.42432 10.1833 8.13276 10.7445 7.9148C11.2871 7.70378 11.9072 7.55995 12.8156 7.51835Z" fill="#DDDDDD"/>
<path fill-rule="evenodd" clip-rule="evenodd" d="M15.5688 9.00409C15.7174 9.00385 15.8773 9.00393 16.0499 9.004L16.3343 9.00409C18.6127 9.00409 18.8828 9.01226 19.7825 9.05315C20.6145 9.0912 21.0661 9.23022 21.3669 9.34702C21.7651 9.50169 22.049 9.68658 22.3475 9.98525C22.6462 10.2839 22.8311 10.5684 22.9861 10.9666C23.1029 11.267 23.2421 11.7186 23.28 12.5506C23.3209 13.4502 23.3298 13.7204 23.3298 15.9978C23.3298 18.2751 23.3209 18.5453 23.28 19.4449C23.2419 20.2769 23.1029 20.7285 22.9861 21.0289C22.8314 21.4271 22.6462 21.7107 22.3475 22.0092C22.0489 22.3079 21.7653 22.4928 21.3669 22.6474C21.0665 22.7648 20.6145 22.9034 19.7825 22.9415C18.883 22.9824 18.6127 22.9913 16.3343 22.9913C14.0557 22.9913 13.7857 22.9824 12.8861 22.9415C12.0541 22.9031 11.6025 22.7641 11.3015 22.6472C10.9033 22.4926 10.6189 22.3077 10.3202 22.009C10.0215 21.7104 9.83664 21.4266 9.68162 21.0282C9.56482 20.7278 9.42562 20.2762 9.38775 19.4442C9.34686 18.5446 9.33868 18.2744 9.33868 15.9956C9.33868 13.7168 9.34686 13.448 9.38775 12.5485C9.4258 11.7165 9.56482 11.2649 9.68162 10.9641C9.83629 10.5659 10.0215 10.2814 10.3202 9.98276C10.6189 9.68409 10.9033 9.4992 11.3015 9.34418C11.6024 9.22684 12.0541 9.08818 12.8861 9.04995C13.6733 9.0144 13.9784 9.00373 15.5688 9.00195V9.00409ZM20.8892 10.4206C20.3239 10.4206 19.8652 10.8787 19.8652 11.4443C19.8652 12.0096 20.3239 12.4683 20.8892 12.4683C21.4546 12.4683 21.9132 12.0096 21.9132 11.4443C21.9132 10.8789 21.4546 10.4202 20.8892 10.4202V10.4206ZM11.9521 15.9988C11.9521 13.5787 13.9142 11.6166 16.3342 11.6165C18.7543 11.6165 20.7159 13.5787 20.7159 15.9988C20.7159 18.4189 18.7545 20.3802 16.3344 20.3802C13.9143 20.3802 11.9521 18.4189 11.9521 15.9988Z" fill="#DDDDDD"/>
<path fill-rule="evenodd" clip-rule="evenodd" d="M16.334 13.1553C17.9049 13.1553 19.1785 14.4287 19.1785 15.9997C19.1785 17.5706 17.9049 18.8442 16.334 18.8442C14.763 18.8442 13.4896 17.5706 13.4896 15.9997C13.4896 14.4287 14.763 13.1553 16.334 13.1553V13.1553Z" fill="#DDDDDD"/>
</svg>
